<?xml version="1.0" encoding="UTF-8"?>
<svg id="uuid-48fb6157-1b07-4fa7-9ff1-a50e71330025" xmlns="http://www.w3.org/2000/svg" width="122" height="160" xmlns:xlink="http://www.w3.org/1999/xlink" viewBox="0 0 122 160">
    <defs>
        <style>
            .uuid-18121c55-7eb1-4fec-a005-0b3ac426e3d0{fill:none;}
            .uuid-1762e0e7-3b6a-4e70-bfe9-9e2b7ad40bbd{clip-path:url(#uuid-a5288030-08fa-4767-8abc-b91d43105e5c);}
            .uuid-3c144bea-6e49-48ba-bd7b-b17ef8ee8f75{fill:#222;}
            .uuid-bee2dc48-ec68-43c5-b1ff-80d07192b004{fill:url(#uuid-36064d84-f85f-4261-a525-51f6614b0538);}
        </style>
        <clipPath id="uuid-a5288030-08fa-4767-8abc-b91d43105e5c">
            <path class="uuid-18121c55-7eb1-4fec-a005-0b3ac426e3d0" d="M93.14,64H28.86v-16h64.29v16ZM93.14,80H28.86v16h64.29v-16ZM73.86,112H28.86v16h45v-16ZM122,32v112c0,8.84-7.16,16-16,16H16c-8.84,0-16-7.16-16-16V32c0-8.84,7.16-16,16-16h22.37C41.67,6.68,50.55,0,61,0s19.33,6.68,22.63,16h22.37c8.84,0,16,7.16,16,16ZM106,32H16v112h90V32ZM61,24c4.42,0,8-3.58,8-8s-3.58-8-8-8-8,3.58-8,8,3.58,8,8,8Z"/>
        </clipPath>
        <linearGradient id="uuid-36064d84-f85f-4261-a525-51f6614b0538" x1="37.43" y1="80" x2="72.49" y2="80" gradientUnits="userSpaceOnUse">
            <stop offset="0" stop-color="#ff8ae8"/>
            <stop offset="1" stop-color="#6edbff"/>
        </linearGradient>
    </defs>
    <g id="uuid-c63e442c-89fa-416a-8970-10891200bdc9">
        <rect class="uuid-3c144bea-6e49-48ba-bd7b-b17ef8ee8f75" x="13" y="29.5" width="96" height="117"/>
        <rect class="uuid-3c144bea-6e49-48ba-bd7b-b17ef8ee8f75" x="49" y="5.5" width="24" height="29"/>
        <g class="uuid-1762e0e7-3b6a-4e70-bfe9-9e2b7ad40bbd">
            <rect class="uuid-bee2dc48-ec68-43c5-b1ff-80d07192b004" y="-.5" width="122" height="161"/>
        </g>
    </g>
</svg>