<?xml version="1.0" encoding="UTF-8"?><svg id="uuid-8f3e2a2d-f37a-425d-a5d2-1218c03bfbad" xmlns="http://www.w3.org/2000/svg" width="66.43" height="166.73" xmlns:xlink="http://www.w3.org/1999/xlink" viewBox="0 0 66.43 166.73"><defs><style>.uuid-bbaa09b1-0171-4e2c-8c38-1168bdcd9689{fill:#222;}.uuid-ff5b214e-df54-49e3-be6f-20d2324cb835{fill:url(#uuid-6f2546cf-35a2-42fe-a25d-db98e1b99905);}</style><linearGradient id="uuid-6f2546cf-35a2-42fe-a25d-db98e1b99905" x1="20.2" y1="83.36" x2="46.85" y2="83.36" gradientUnits="userSpaceOnUse"><stop offset="0" stop-color="#ff8ae8"/><stop offset="1" stop-color="#6edbff"/></linearGradient></defs><g id="uuid-1d2364bd-a08f-4ad5-b7f3-467428c1ff91"><path class="uuid-ff5b214e-df54-49e3-be6f-20d2324cb835" d="M39.99,11.01s1.02,15.08,8.4,22.52c3.47,3.5,7.51,12.8,6.99,20.98-.79,12.42-13.68,23.3-13.99,23.57v69.16c0,4.69-3.81,8.5-8.5,8.5-3.87,0-7-3.13-7-7v-72.04c-3.33-2.98-11.06-10.8-14.17-21.56C5.81,34.69,39.99,11.01,39.99,11.01M40.01,0c-2.21,0-4.41.67-6.29,1.97-.39.27-9.64,6.72-18.18,15.99C2.4,32.23-2.44,45.76,1.15,58.19c2.95,10.2,8.94,18.09,13.74,23.14v67.4c0,9.93,8.07,18,18,18,10.75,0,19.5-8.75,19.5-19.5v-64.45c5.09-5.28,13.2-15.49,13.97-27.57.75-11.71-4.68-23.9-10.16-29.42-3.01-3.03-4.9-11.07-5.24-15.55-.27-3.95-2.64-7.43-6.2-9.15-1.51-.72-3.13-1.08-4.74-1.08h0Z"/><path class="uuid-bbaa09b1-0171-4e2c-8c38-1168bdcd9689" d="M32.89,155.73c4.69,0,8.5-3.81,8.5-8.5v-69.16c.31-.26,13.2-11.15,13.99-23.57.52-8.18-3.35-17.01-8.24-23.98-5.84-8.31-7.15-19.52-7.15-19.52,0,0-34.18,23.68-28.27,44.12,3.11,10.76,10.85,18.58,14.17,21.56v72.04c0,3.87,3.13,7,7,7Z"/></g></svg>