<?xml version="1.0" encoding="UTF-8"?>
<svg id="uuid-1a0a436f-c613-493e-b4c7-457c09fdfba3" xmlns="http://www.w3.org/2000/svg" width="150" height="148.25" xmlns:xlink="http://www.w3.org/1999/xlink" viewBox="0 0 150 148.25">
    <defs>
        <style>
            .uuid-f9e48a32-1c82-444c-94f7-900a0adfff8c{fill:#222;}
            .uuid-bcf2ed95-7236-4a20-8457-d7ed473ed24f{fill:url(#uuid-c8a7848e-4489-450b-8525-5ae9f8ff596a);}
        </style>
        <linearGradient id="uuid-c8a7848e-4489-450b-8525-5ae9f8ff596a" x1="56.29" y1="74.12" x2="93.5" y2="74.12" gradientUnits="userSpaceOnUse">
            <stop offset="0" stop-color="#ff8ae8"/>
            <stop offset="1" stop-color="#6edbff"/>
        </linearGradient>
    </defs>
    <g id="uuid-bdfc2509-a05d-4aa0-8515-2f98e15b89fb">
        <path class="uuid-bcf2ed95-7236-4a20-8457-d7ed473ed24f" d="M74.14,0c-10.48,0-19,8.52-19,19,0,3.11.77,6.1,2.14,8.75h-2.89c-22.97,0-41.98,17.3-44.67,39.55-5.95,4.24-9.72,11.19-9.72,18.76v12c0,7.42,3.63,14.26,9.39,18.52v21.67c0,5.52,4.48,10,10,10h108.5c5.52,0,10-4.48,10-10v-19.96c7.22-3.91,12.11-11.56,12.11-20.23v-12c0-8.9-5.15-16.73-12.69-20.54-3.47-21.39-22.07-37.77-44.42-37.77h-1.89c1.38-2.65,2.14-5.64,2.14-8.75,0-10.48-8.52-19-19-19h0Z"/>
        <path class="uuid-f9e48a32-1c82-444c-94f7-900a0adfff8c" d="M127.89,73.1v-.35c0-19.33-15.67-35-35-35h-15.75v-10.27c3.49-1.24,6-4.56,6-8.48,0-4.97-4.03-9-9-9s-9,4.03-9,9c0,3.92,2.51,7.24,6,8.48v10.27h-16.75c-19.33,0-35,15.67-35,35v.83c-5.42,1.57-9.39,6.56-9.39,12.48v12c0,5.93,3.97,10.92,9.39,12.48v27.71h108.5v-27.24c6.76-.46,12.11-6.08,12.11-12.95v-12c0-6.88-5.35-12.49-12.11-12.95ZM93.47,121.82h-37.25v-10h37.25v10ZM112.53,75c0,9.94-8.06,18-18,18h-39c-9.94,0-18-8.06-18-18h0c0-9.94,8.06-18,18-18h39c9.94,0,18,8.06,18,18h0Z"/>
        <polygon class="uuid-f9e48a32-1c82-444c-94f7-900a0adfff8c" points="93.72 67.44 83.77 67.44 83.77 75.3 66.01 75.3 66.01 67.49 56.21 67.49 56.21 75.21 48.32 75.21 48.32 83.21 56.32 83.21 56.32 75.34 65.98 75.34 65.98 83.05 83.83 83.05 83.83 75.34 93.63 75.34 93.63 83.28 101.63 83.28 101.63 75.28 93.72 75.28 93.72 67.44"/>
    </g>
</svg>