<?xml version="1.0" encoding="UTF-8"?><svg id="uuid-d616330b-71ab-4913-a78a-0d10c407ce12" xmlns="http://www.w3.org/2000/svg" width="114.75" height="122.14" xmlns:xlink="http://www.w3.org/1999/xlink" viewBox="0 0 114.75 122.14"><defs><style>.uuid-ebda0459-8cc3-4322-8742-7efa3836e565{fill:url(#uuid-c3dfffc0-208e-4d3e-bcfb-1a3d2a3415cf);}.uuid-47c1b148-fb90-4089-a5d3-f2d2e3ff9d80{fill:#222;}</style><linearGradient id="uuid-c3dfffc0-208e-4d3e-bcfb-1a3d2a3415cf" x1="51.25" y1="66.36" x2="72.01" y2="64.23" gradientUnits="userSpaceOnUse"><stop offset="0" stop-color="#ff8ae8"/><stop offset="1" stop-color="#6edbff"/></linearGradient></defs><g id="uuid-5b22780d-2fd4-4c5d-b90a-ed196ac3848a"><path class="uuid-47c1b148-fb90-4089-a5d3-f2d2e3ff9d80" d="M26.43,41.58l-21.25,5.69L0,27.95l21.25-5.69,5.18,19.32ZM47.68,35.88l20.28-5.44-5.18-19.32-20.28,5.44,5.18,19.32ZM84.04,5.44l5.18,19.32,20.28-5.44L104.32,0l-20.28,5.44ZM20.75,122.14h80c7.73,0,14-6.27,14-14v-37H6.75v37c0,7.73,6.27,14,14,14ZM71.75,53.64h-21v17.5h21v-17.5ZM28.75,53.64H6.75v17.5h22v-17.5ZM93.75,53.64v17.5h21v-17.5h-21Z"/><path class="uuid-ebda0459-8cc3-4322-8742-7efa3836e565" d="M103.75,82.14v26c0,1.65-1.35,3-3,3H20.75c-1.65,0-3-1.35-3-3v-26h86M104.32,0l-20.28,5.44,5.18,19.32,20.28-5.44L104.32,0h0ZM62.79,11.13l-20.28,5.44,5.18,19.32,20.28-5.44-5.18-19.32h0ZM21.25,22.26L0,27.95l5.18,19.32,21.25-5.69-5.18-19.32h0ZM114.75,53.64h-21v17.5h21v-17.5h0ZM71.75,53.64h-21v17.5h21v-17.5h0ZM28.75,53.64H6.75v17.5h22v-17.5h0ZM114.75,71.14H6.75v37c0,7.73,6.27,14,14,14h80c7.73,0,14-6.27,14-14v-37h0Z"/><rect class="uuid-47c1b148-fb90-4089-a5d3-f2d2e3ff9d80" x="17.75" y="71.14" width="86" height="15"/><rect class="uuid-47c1b148-fb90-4089-a5d3-f2d2e3ff9d80" x="28.75" y="53.64" width="22" height="18"/><rect class="uuid-47c1b148-fb90-4089-a5d3-f2d2e3ff9d80" x="71.75" y="53.64" width="22" height="18"/><rect class="uuid-47c1b148-fb90-4089-a5d3-f2d2e3ff9d80" x="23.48" y="19.2" width="22" height="20" transform="translate(-6.38 9.92) rotate(-15)"/><rect class="uuid-47c1b148-fb90-4089-a5d3-f2d2e3ff9d80" x="65.02" y="8.07" width="22" height="20" transform="translate(-2.09 20.29) rotate(-15)"/></g></svg>