<?xml version="1.0" encoding="UTF-8"?>
<svg id="Layer_2" data-name="Layer 2" xmlns="http://www.w3.org/2000/svg" xmlns:xlink="http://www.w3.org/1999/xlink" viewBox="0 0 149.48 157.6">
  <defs>
    <style>
      .cls-1 {
        fill: none;
      }

      .cls-2 {
        fill: #222;
      }

      .cls-3 {
        fill: url(#linear-gradient);
      }

      .cls-4 {
        clip-path: url(#clippath);
      }
    </style>
    <clipPath id="clippath">
      <path class="cls-1" d="M33.26,30.84c2.21,0,4,1.79,4,4v19.45c0,2.21-1.79,4-4,4H14c-2.21,0-4-1.79-4-4v-19.45c0-2.21,1.79-4,4-4h19.26M33.26,20.84H14c-7.72,0-14,6.28-14,14v19.45c0,7.72,6.28,14,14,14h19.26c7.72,0,14-6.28,14-14v-19.45c0-7.72-6.28-14-14-14h0ZM33.26,99.01c2.21,0,4,1.79,4,4v19.45c0,2.21-1.79,4-4,4H14c-2.21,0-4-1.79-4-4v-19.45c0-2.21,1.79-4,4-4h19.26M33.26,89.01H14c-7.72,0-14,6.28-14,14v19.45c0,7.72,6.28,14,14,14h19.26c7.72,0,14-6.28,14-14v-19.45c0-7.72-6.28-14-14-14h0ZM93.05,157.6c-11.95,0-23.11-2.77-31.95-7.99l-.22-.13c-3.06-1.79-7.69-4.49-8.98-9.06l-.12-.46c-.98-4.66,1.38-8.47,3.09-11.25l.56-.9c.4-.59.79-1.18,1.16-1.75,2.59-3.93,5.26-7.99,10.11-8.83,3.2-.55,6.49.48,10.08,3.16,7.11,5.09,15.97,6.63,24.33,4.23l.3-.08c7.46-1.66,9.64-8.59,10.23-11.49,1.47-7.19-1.07-14.76-6.17-18.41l-.29-.22c-2.97-2.47-7.7-3.39-12.27-4.27-1.02-.2-2.02-.39-2.98-.6-5.47-1.15-8.75-6.16-8.76-13.42-.1-3.87.02-7.87,1.45-10.91l.05-.11c2.7-5.39,8.21-6.3,12.23-6.95,1.56-.25,3.17-.52,4.14-.97l.33-.15.35-.1c4.36-1.27,6.08-5.1,6.72-7.28,1.39-4.72.38-10.3-2.45-13.62-4.12-4.26-11.68-4.79-17.37-3.42-2.51.59-5.3,2.17-7.77,3.56l-.32.18c-1.83,1.03-7.38,4.15-12.9.09-3.54-2.58-6.94-7.77-8.77-11.45-1.21-2.32-4.14-9.99,5.71-15.9,2.89-1.86,6.22-3.55,9.63-4.91C82.26.04,93.82-1.04,106.53,1c16.05,2.17,33.71,12.87,37.06,31.92,2.83,14.4-1.11,28.53-10.56,37.81-.51.53-1.75,1.81-2.35,2.65.85.96,2.63,2.37,3.58,3.12,12.42,9.73,17.8,26.84,14.03,44.64-4.88,25.03-29.24,35.15-48.66,36.19-2.22.18-4.42.28-6.59.28ZM61.56,137.73c.62.93,3.22,2.45,4.36,3.12l.25.15c8.58,5.08,20.49,7.39,32.7,6.37h.16c15.83-.84,35.66-8.73,39.46-28.21,2.34-11.08.83-25.98-10.42-34.79-3.44-2.72-7.69-6.08-7.62-10.7-.12-4.21,3.1-7.51,5.46-9.94l.08-.09c7.07-6.92,9.98-17.69,7.78-28.82l-.02-.11c-2.46-14.12-16.14-22.12-28.61-23.79l-.13-.02c-10.88-1.76-20.64-.9-29.01,2.57-2.91,1.16-5.67,2.56-8.04,4.09l-.15.1c-2.03,1.21-2.3,1.97-2.31,1.98,0,.05.04.31.28.76l.06.11c1.59,3.2,4.17,6.73,5.75,7.88.09.07.14.09.15.1-.01-.01.51-.03,1.93-.83l.31-.18c3.04-1.71,6.49-3.66,10.36-4.57,7.88-1.9,19.71-1.38,27.03,6.35l.14.15c5.16,5.92,6.95,14.98,4.57,23.09-2.03,6.92-6.83,11.98-13.18,13.96-2.1.89-4.35,1.26-6.34,1.59-2.07.34-4.41.72-4.88,1.52-.23.56-.58,2.12-.47,6.4v.13c0,2.5.63,3.56.79,3.68.97.21,1.91.39,2.86.57,5.49,1.06,11.7,2.26,16.62,6.29,8.24,6,12.25,17.4,10,28.43-2.04,9.97-8.65,17.14-17.71,19.22-11.29,3.2-23.25,1.1-32.83-5.79l-.09-.06c-1.47-1.11-2.21-1.29-2.4-1.33-.81.42-2.41,2.85-3.47,4.47-.38.58-.78,1.18-1.18,1.78l-.39.63c-.68,1.1-1.79,2.9-1.83,3.75Z"/>
    </clipPath>
    <linearGradient id="linear-gradient" x1="-15.57" y1="77.75" x2="154.75" y2="77.75" gradientUnits="userSpaceOnUse">
      <stop offset=".41" stop-color="#ff8ae8"/>
      <stop offset=".7" stop-color="#6edbff"/>
    </linearGradient>
  </defs>
  <g id="Layer_1-2" data-name="Layer 1">
    <g>
      <g>
        <rect class="cls-2" x="10" y="30.84" width="27.26" height="27.45" rx="4" ry="4"/>
        <rect class="cls-2" x="10" y="99.01" width="27.26" height="27.45" rx="4" ry="4"/>
        <path class="cls-2" d="M56.68,138.93c-.63-2.99,1.38-5.82,2.89-8.31,4.21-6.19,6.72-11.87,14.26-6.2,8.29,5.96,18.86,7.82,28.67,5,17.04-3.78,19.29-29.26,5.89-38.85-4.73-3.94-11.7-4.7-17.4-5.91-3.83-.8-4.81-5.05-4.81-8.59-.08-3.23,0-6.64.97-8.72,2.41-4.81,9.49-3.55,13.99-5.61,11.99-3.48,14.05-20.47,6.58-29.06-5.48-5.79-14.84-6.71-22.25-4.92-3.3.78-6.53,2.64-9.37,4.24-2.78,1.56-5.16,2.12-7.48.42-2.59-1.88-5.59-6.29-7.29-9.7-2.2-4.15.08-7.11,3.89-9.37,2.72-1.76,5.79-3.3,8.84-4.51,10.02-4.14,21.08-4.6,31.72-2.88,15.2,2.03,30.08,11.81,32.88,27.89,2.35,11.86-.39,24.76-9.18,33.36-2.31,2.37-4.16,4.46-4.04,6.42-.12,2.19,3.21,4.83,5.7,6.8,11.98,9.39,15.29,25.31,12.24,39.69-4.09,20.97-24.35,31.2-44.11,32.24-12.47,1.05-25.58-1.08-35.64-7.03-2.54-1.48-6.17-3.53-6.93-6.24l-.03-.13Z"/>
      </g>
      <g class="cls-4">
        <rect class="cls-3" x="-15.57" y="-19.61" width="170.32" height="194.71"/>
      </g>
    </g>
  </g>
</svg>