<?xml version="1.0" encoding="UTF-8"?>
<svg id="Layer_2" data-name="Layer 2" xmlns="http://www.w3.org/2000/svg" xmlns:xlink="http://www.w3.org/1999/xlink" viewBox="0 0 160.01 177.5">
  <defs>
    <style>
      .cls-1 {
        fill: #ff8ae8;
      }

      .cls-2 {
        fill: #222;
      }

      .cls-3 {
        fill: url(#linear-gradient);
      }
    </style>
    <linearGradient id="linear-gradient" x1="46.46" y1="88.75" x2="160.01" y2="88.75" gradientUnits="userSpaceOnUse">
      <stop offset=".19" stop-color="#ff8ae8"/>
      <stop offset=".34" stop-color="#6edbff"/>
    </linearGradient>
  </defs>
  <g id="Layer_1-2" data-name="Layer 1">
    <g>
      <g>
        <rect class="cls-1" x="0" y="31.87" width="47.75" height="47.75" rx="20.25" ry="20.25"/>
        <path class="cls-1" d="M20.25,145.87c-11.54,0-20.25-8.71-20.25-20.25v-7.25c0-11.69,8.71-20.5,20.25-20.5h7.25c11.54,0,20.25,8.81,20.25,20.5v7.25c0,11.54-8.71,20.25-20.25,20.25h-7.25Z"/>
        <path class="cls-3" d="M96.26,177.5c-21.28,0-31.35-4.67-44.91-20.82-7.35-8.81-6.3-20.93,2.4-28.27,3.64-3.17,8.17-4.91,12.77-4.91,5.81,0,11.29,2.74,15.06,7.52,5.46,6.73,6.01,6.73,14.68,6.73h10.25c5.09,0,10.25-3.69,10.25-10.75v-9.75c0-9.25-9.44-10.25-13.5-10.25h-15c-11.21,0-20-8.57-20-19.5s8.79-19.5,20-19.5h15c5.23,0,10.5-3.17,10.5-10.25v-8.75c0-6.7-5.05-9.75-9.75-9.75h-7.5c-7.85,0-8.53,0-14.24,6.81-3.86,4.86-9.46,7.64-15.41,7.64-4.39,0-8.62-1.49-12.25-4.3-.7-.55-1.31-1.17-1.83-1.85-3-3.14-4.87-7.06-5.32-11.28-.56-5.21,1.08-10.42,4.61-14.66C65.99,4.85,75.96,0,96.51,0h7.5c30.32,0,51.5,20.15,51.5,49v8.75c0,10.47-3.96,20.17-11.06,27.83,9.86,7.76,15.56,18.98,15.56,31.67v9.75c0,15.18-5.43,28.07-15.71,37.26-9.67,8.66-22.74,13.24-37.79,13.24h-10.25Z"/>
      </g>
      <g>
        <rect class="cls-2" x="10" y="41.87" width="27.75" height="27.75" rx="10.25" ry="10.25"/>
        <path class="cls-2" d="M20.25,135.87c-6,0-10.25-4.25-10.25-10.25v-7.25c0-6,4.25-10.5,10.25-10.5h7.25c6,0,10.25,4.5,10.25,10.5v7.25c0,6-4.25,10.25-10.25,10.25h-7.25Z"/>
        <path class="cls-2" d="M150.01,117.25v9.75c0,25.5-18.5,40.5-43.5,40.5h-10.25c-18.25,0-25.5-3.25-37.25-17.25-3.75-4.5-3.25-10.5,1.25-14.25,4.25-3.75,10-3.25,13.5,1.25,7.5,9.25,11,10.5,22.5,10.5h10.25c10.5,0,20.25-8,20.25-20.75v-9.75c0-12.5-9.75-20.25-23.5-20.25h-15c-5.75,0-10-4-10-9.5s4.25-9.5,10-9.5h15c11,0,20.5-7.75,20.5-20.25v-8.75c0-12.25-9.5-19.75-19.75-19.75h-7.5c-10.75,0-14.25,1.25-22,10.5-3.5,4.5-9.25,5.25-13.75,1.75l.5.25c-4.5-3.5-5.25-9.25-1.5-13.75,12.25-14.75,19.5-18,36.75-18h7.5c24,0,41.5,14.75,41.5,39v8.75c0,12.5-7.5,23.25-19.5,29.25,14.5,4.75,24,16,24,30.25Z"/>
      </g>
    </g>
  </g>
</svg>