<?xml version="1.0" encoding="UTF-8"?><svg id="uuid-099a4964-1b48-47dd-9277-a21d45ecc5c4" xmlns="http://www.w3.org/2000/svg" width="171.97" height="162.79" xmlns:xlink="http://www.w3.org/1999/xlink" viewBox="0 0 171.97 162.79"><defs><style>.uuid-1978e7ad-23b5-4507-a500-c3946347c32d{fill:url(#uuid-5e2e2bc1-91f0-4b7f-8f35-9fd1c023a9ca);}.uuid-cbb05755-cdff-4eaa-a1bb-69509f36fed0{fill:#222;fill-rule:evenodd;}</style><linearGradient id="uuid-5e2e2bc1-91f0-4b7f-8f35-9fd1c023a9ca" x1="61.49" y1="81.4" x2="111.75" y2="81.4" gradientUnits="userSpaceOnUse"><stop offset="0" stop-color="#ff8ae8"/><stop offset="1" stop-color="#6edbff"/></linearGradient></defs><g id="uuid-f0077fb7-f6c6-4f82-9937-835c4eeef637"><path class="uuid-cbb05755-cdff-4eaa-a1bb-69509f36fed0" d="M58.19,12.65l19.32,24.42h16.48l19.89-23.85-11.37,59.07-11.37,15.34h-9.68l-11.92-13.06-11.36-61.91ZM148.54,88.75l-51.14,63.04,44.33-13.63,6.82-49.41ZM23.52,88.75l51.14,63.04-44.33-13.63-6.82-49.41h0ZM19.54,68.87l65.92,81.79,65.35-80.65,10.13-55.43c.18-1-1.08-1.61-1.74-.83l-18.05,21.04-24.44,8.52-2.84,14.76,26.71-8.52-1.14,8.52-26.71,9.09-1.14,7.39,25.57-7.95-1.14,7.95-34.66,11.36-15.91,19.88-17.62-21.02-33.53-10.79-1.14-8.52,28.98,9.09-2.27-6.82-27.84-10.79-1.71-9.65,27.84,9.09-3.41-15.34-23.3-7.95L12.76,11.35c-.66-.76-1.91-.19-1.75.8,2.06,12.76,9.01,56.23,8.53,56.71h0ZM119.38,91.59l-28.42,11.93,7.39,15.34,21.03-27.27h0ZM50.8,91.59l28.42,11.93-7.39,15.34-21.03-27.27h0ZM76.94,52.97h17.65l-8.56,20.44-9.09-20.44Z"/><path class="uuid-1978e7ad-23b5-4507-a500-c3946347c32d" d="M12.01,11c.27,0,.54.11.75.35l18.72,21.74,23.3,7.95,3.41,15.34-27.84-9.09,1.71,9.65,27.84,10.79,2.27,6.82-28.98-9.09,1.14,8.52,33.53,10.79,17.62,21.02,15.91-19.88,34.66-11.36,1.14-7.95-25.57,7.95,1.14-7.39,26.71-9.09,1.14-8.52-26.71,8.52,2.84-14.76,24.44-8.52,18.05-21.04c.21-.25.48-.35.75-.35.57,0,1.12.5,1,1.18l-10.13,55.43-65.35,80.65L19.54,68.87c.48-.49-6.47-43.95-8.53-56.71-.11-.68.43-1.16,1-1.16M119.38,91.59l-28.42,11.93,7.39,15.34,21.03-27.27M71.82,118.85l7.39-15.34-28.42-11.93,21.03,27.27M58.19,12.65l19.32,24.42h16.48l19.89-23.85-11.37,59.07-11.37,15.34h-9.68l-11.92-13.06-11.36-61.91M86.03,73.41l8.56-20.44h-17.65l9.09,20.44M19.54,68.87h0s0,0,0,0M148.54,88.75l-6.82,49.41-44.33,13.63,51.14-63.04M23.52,88.75l51.14,63.04-44.33-13.63-6.82-49.41M12.01,0h-.05c-1.46,0-2.92.22-4.28.77C2.11,3.04-.71,8.53.15,13.91c4.93,30.62,19.29,125.76,19.29,125.76.58,4.24,3.57,7.75,7.66,9.01l36.63,10.87c7.25,2.15,14.77,3.24,22.33,3.24h0c7.51,0,14.99-1.09,22.19-3.22l36.7-10.89c4.09-1.26,7.08-4.77,7.66-9.01l19.15-123.11c.64-3.52-.3-7.1-2.58-9.84-2.29-2.75-5.66-4.33-9.24-4.33-3.49,0-6.81,1.53-9.1,4.19l-16.12,18.8-12.86,4.48,2.75-14.29c.85-4.42-.9-9.04-4.65-11.52-1.89-1.25-4.01-1.84-6.09-1.84-3.19,0-6.31,1.39-8.45,3.96l-14.7,17.63c-1.2,1.44-2.97,2.27-4.85,2.27h0c-1.93,0-3.75-.88-4.95-2.39l-14.12-17.85c-2.14-2.7-5.35-4.18-8.63-4.18-2.04,0-4.1.57-5.96,1.76-3.81,2.44-5.62,7.08-4.8,11.53l2.35,12.78-11.91-4.06L21.1,4.18C18.81,1.52,15.5,0,12.01,0h0Z"/></g></svg>