<?xml version="1.0" encoding="UTF-8"?>
<svg id="uuid-de549583-49be-4198-ae00-9e7b43ea19dd" xmlns="http://www.w3.org/2000/svg" width="146.64" height="116" xmlns:xlink="http://www.w3.org/1999/xlink" viewBox="0 0 146.64 116">
    <defs>
        <style>
            .uuid-0dd0d63d-1083-4b7c-bfdd-028684ce3467{fill:#222;}
            .uuid-8c1e28e4-7df8-43ba-a943-ef82f6213fc6{fill:url(#uuid-47de249f-b4fd-4fa7-8ee0-0a08009ef64a);}
        </style>
        <linearGradient id="uuid-47de249f-b4fd-4fa7-8ee0-0a08009ef64a" x1="51.68" y1="58" x2="94.21" y2="58" gradientUnits="userSpaceOnUse">
            <stop offset="0" stop-color="#ff8ae8"/>
            <stop offset="1" stop-color="#6edbff"/>
        </linearGradient>
    </defs>
    <g id="uuid-c63888af-5013-4933-9df1-85148a9d60d6">
        <path id="uuid-5ff8262a-81e7-46e4-9775-83598e144b4d" class="uuid-0dd0d63d-1083-4b7c-bfdd-028684ce3467" d="M91.15,10c-1.24,2.2-2.35,4.47-3.36,6.79-9.6-1.44-19.37-1.44-28.99,0-.99-2.32-2.12-4.6-3.36-6.79-9.02,1.54-17.81,4.24-26.14,8.06C12.78,42.53,8.31,66.37,10.53,89.89c9.67,7.15,20.51,12.6,32.05,16.09,2.6-3.49,4.9-7.2,6.87-11.06-3.74-1.39-7.35-3.13-10.81-5.15.91-.66,1.79-1.34,2.65-2,20.28,9.55,43.77,9.55,64.08,0,.86.71,1.74,1.39,2.65,2-3.46,2.05-7.07,3.76-10.83,5.18,1.97,3.86,4.27,7.58,6.87,11.06,11.54-3.49,22.38-8.92,32.05-16.06,2.63-27.28-4.5-50.92-18.82-71.85-8.31-3.81-17.1-6.52-26.11-8.03l-.03-.05ZM52.28,75.41c-6.24,0-11.42-5.66-11.42-12.65s4.98-12.68,11.39-12.68,11.52,5.71,11.42,12.68c-.1,6.97-5.03,12.65-11.39,12.65ZM94.36,75.41c-6.26,0-11.39-5.66-11.39-12.65s4.98-12.68,11.39-12.68,11.49,5.71,11.39,12.68c-.1,6.97-5.03,12.65-11.39,12.65Z"/>
        <path id="uuid-83d38577-6181-4f61-816b-bdf4732f65bc" class="uuid-8c1e28e4-7df8-43ba-a943-ef82f6213fc6" d="M91.15,10l.03.05c9.02,1.52,17.81,4.22,26.11,8.03,14.32,20.94,21.44,44.58,18.82,71.85-9.67,7.15-20.51,12.58-32.05,16.06-2.6-3.49-4.9-7.2-6.87-11.06,3.76-1.41,7.37-3.13,10.83-5.18-.91-.61-1.79-1.29-2.65-2-10.15,4.77-21.1,7.16-32.05,7.16s-21.89-2.39-32.03-7.16c-.86.66-1.74,1.34-2.65,2,3.46,2.02,7.07,3.76,10.81,5.15-1.97,3.86-4.27,7.58-6.87,11.06-11.54-3.49-22.38-8.94-32.05-16.09-2.22-23.51,2.25-47.36,18.77-71.83,8.33-3.81,17.12-6.52,26.14-8.06,1.24,2.2,2.37,4.47,3.36,6.79,4.81-.72,9.66-1.08,14.51-1.08s9.69.36,14.49,1.08c1.01-2.32,2.12-4.6,3.36-6.79M94.36,75.41c6.36,0,11.29-5.68,11.39-12.65.1-6.97-4.98-12.68-11.39-12.68s-11.39,5.68-11.39,12.68,5.13,12.65,11.39,12.65M52.28,75.41c6.36,0,11.29-5.68,11.39-12.65.1-6.97-5-12.68-11.42-12.68s-11.39,5.68-11.39,12.68,5.18,12.65,11.42,12.65M55.44,0c-.56,0-1.12.05-1.69.14-9.89,1.69-19.52,4.66-28.62,8.82-1.67.76-3.1,1.98-4.13,3.5C4.58,36.81-2.11,62.44.58,90.83c.27,2.83,1.73,5.41,4.01,7.1,10.66,7.88,22.47,13.8,35.1,17.62.95.29,1.93.43,2.89.43,3.1,0,6.09-1.45,8.01-4.02,2.07-2.78,4-5.71,5.74-8.75,5.59,1.14,11.3,1.72,16.99,1.72s11.38-.58,16.97-1.72c1.75,3.05,3.67,5.99,5.75,8.78,1.92,2.57,4.91,4.02,8.01,4.02.96,0,1.94-.14,2.89-.43,12.67-3.83,24.48-9.75,35.1-17.59,2.28-1.69,3.74-4.26,4.01-7.08,2.71-28.19-4.19-54.59-20.52-78.46-1.02-1.5-2.43-2.69-4.08-3.44-8.82-4.05-18.12-6.95-27.68-8.64-.77-.21-1.57-.33-2.39-.35-.08,0-.17,0-.25,0-3.6,0-6.94,1.94-8.71,5.09-.18.32-.36.64-.53.97-2.86-.23-5.74-.34-8.6-.34s-5.75.12-8.62.35c-.18-.32-.35-.64-.54-.97-1.79-3.18-5.14-5.09-8.71-5.09h0Z"/>
    </g>
</svg>