<?xml version="1.0" encoding="UTF-8"?><svg id="uuid-9ca77c28-6b23-4321-8146-30a816b3354c" xmlns="http://www.w3.org/2000/svg" width="295.14" height="368.5" xmlns:xlink="http://www.w3.org/1999/xlink" viewBox="0 0 295.14 368.5"><defs><style>.uuid-8a68c204-6674-4307-ab59-d47db6388303{fill:url(#uuid-ae9b7639-3cc9-44bf-a937-14bcd7740bc4);}.uuid-beb311e6-d5b5-48e1-9c22-efb2d29e9fa4{fill:url(#uuid-9578eb76-a97b-4538-b5f7-a7aa416a051c);}</style><linearGradient id="uuid-ae9b7639-3cc9-44bf-a937-14bcd7740bc4" x1="23.85" y1="187.5" x2="55.07" y2="187.5" gradientUnits="userSpaceOnUse"><stop offset="0" stop-color="#ff8ae8"/><stop offset="1" stop-color="#6edbff"/></linearGradient><linearGradient id="uuid-9578eb76-a97b-4538-b5f7-a7aa416a051c" x1="172.83" y1="184.25" x2="207.96" y2="184.25" gradientUnits="userSpaceOnUse"><stop offset="0" stop-color="#ff8ae8"/><stop offset=".29" stop-color="#d2a3ef"/><stop offset=".77" stop-color="#8acbfa"/><stop offset="1" stop-color="#6edbff"/></linearGradient></defs><g id="uuid-0247c502-b016-483d-9be8-c97b997ce93c"><path d="M71,15.5l-6.5,239.5H15.5L9,15.5h62ZM9,298h62v61.5H9v-61.5Z"/><path class="uuid-8a68c204-6674-4307-ab59-d47db6388303" d="M71,368.5H9c-4.97,0-9-4.03-9-9v-61.5c0-4.97,4.03-9,9-9h62c4.97,0,9,4.03,9,9v61.5c0,4.97-4.03,9-9,9ZM18,350.5h44v-43.5H18v43.5ZM64.5,264H15.5c-4.88,0-8.86-3.88-9-8.76L0,15.74c-.07-2.43.85-4.78,2.55-6.52,1.69-1.74,4.02-2.72,6.45-2.72h62c2.43,0,4.76.98,6.45,2.72,1.69,1.74,2.61,4.09,2.55,6.52l-6.5,239.5c-.13,4.87-4.12,8.76-9,8.76ZM24.26,246h31.48l6.01-221.5H18.25l6.01,221.5Z"/><path d="M286.14,106c0,39.5-7,59-49.5,94-19.5,16-19.5,19-19.5,40.5v25.5h-54v-41.5c0-33,9.5-41,39.5-65.5,22.5-18.5,31.5-28.5,31.5-53,0-14-3-46-40-46s-41.5,34-41.5,50.5v20h-50.5v-20c0-49,18-101.5,92-101.5,64,0,92,41.5,92,97ZM159.14,297.5h62v62h-62v-62Z"/><path class="uuid-beb311e6-d5b5-48e1-9c22-efb2d29e9fa4" d="M221.14,368.5h-62c-4.97,0-9-4.03-9-9v-62c0-4.97,4.03-9,9-9h62c4.97,0,9,4.03,9,9v62c0,4.97-4.03,9-9,9ZM168.14,350.5h44v-44h-44v44ZM217.14,275h-54c-4.97,0-9-4.03-9-9v-41.5c0-37.51,12.53-47.75,42.81-72.47,22.18-18.24,28.19-26.02,28.19-46.03,0-37-23.33-37-31-37-13.95,0-32.5,4.3-32.5,41.5v20c0,4.97-4.03,9-9,9h-50.5c-4.97,0-9-4.03-9-9v-20C93.14,39.24,129.01,0,194.14,0c33.26,0,59.1,10.36,76.8,30.79,15.83,18.27,24.2,44.28,24.2,75.21,0,42.42-7.97,64.05-52.78,100.95q-16.22,13.31-16.22,33.55v25.5c0,4.97-4.03,9-9,9ZM172.14,257h36v-16.5c0-23.73.77-29.39,22.79-47.46,39.83-32.8,46.21-49.69,46.21-87.04,0-76.57-52-88-83-88-55.07,0-83,31.12-83,92.5v11h32.5v-11c0-51.77,31.64-59.5,50.5-59.5,31.14,0,49,20.05,49,55,0,28.26-11.14,40.51-34.78,59.95-29.27,23.9-36.22,29.58-36.22,58.55v32.5Z"/></g></svg>