<?xml version="1.0" encoding="UTF-8"?><svg id="uuid-18141d83-d58c-4bdf-a125-05721f380622" xmlns="http://www.w3.org/2000/svg" width="115" height="240" xmlns:xlink="http://www.w3.org/1999/xlink" viewBox="0 0 115 240"><defs><style>.uuid-2c557d81-ad58-4a9e-b424-48789f36aa39{fill:url(#uuid-d1976685-7884-4aa4-8265-0a8e2e15f3f3);}.uuid-25b5cc5b-4460-4403-9ffa-cd94b4871009{fill:#222;}</style><linearGradient id="uuid-d1976685-7884-4aa4-8265-0a8e2e15f3f3" x1="42.2" y1="120" x2="71.34" y2="120" gradientUnits="userSpaceOnUse"><stop offset="0" stop-color="#ff8ae8"/><stop offset="1" stop-color="#6edbff"/></linearGradient></defs><g id="uuid-c2f0e9a8-45f6-42c1-9adc-9a86e3216929"><path class="uuid-25b5cc5b-4460-4403-9ffa-cd94b4871009" d="M11.82,10l24.47,35.2c1.59,2.28,1.66,5.08.25,7.44-10.31,17.3-17.11,46.98-17.11,80.69,0,53.38,17.04,96.66,38.07,96.66s38.07-43.28,38.07-96.66c0-33.72-6.8-63.4-17.11-80.69-1.41-2.36-1.33-5.16.25-7.44l24.47-35.2H11.82ZM56.7,188.96c0,3.84-3.68,6.96-8.22,6.96s-8.22-3.12-8.22-6.96,3.68-6.96,8.22-6.96,8.22,3.12,8.22,6.96Z"/><path class="uuid-2c557d81-ad58-4a9e-b424-48789f36aa39" d="M103.18,10l-24.47,35.2c-1.59,2.28-1.66,5.08-.25,7.44,10.31,17.3,17.11,46.98,17.11,80.69,0,53.38-17.04,96.66-38.07,96.66s-38.07-43.28-38.07-96.66c0-33.72,6.8-63.4,17.11-80.69,1.41-2.36,1.33-5.16-.25-7.44L11.82,10h91.37M48.47,195.92c4.54,0,8.22-3.12,8.22-6.96s-3.68-6.96-8.22-6.96-8.22,3.12-8.22,6.96,3.68,6.96,8.22,6.96M103.18,0H11.82C7.58,0,3.66,1.92,1.56,5.04c-2.1,3.11-2.08,6.94.07,10.04l23.73,34.14c-11.13,19.4-17.75,50.71-17.75,84.13,0,26.87,4.18,52.26,11.76,71.51,11.44,29.05,27.05,35.15,38.13,35.15s26.69-6.1,38.13-35.15c7.58-19.25,11.76-44.65,11.76-71.51,0-33.42-6.62-64.73-17.75-84.13l23.73-34.14c2.15-3.09,2.18-6.92.07-10.04-2.1-3.11-6.02-5.04-10.26-5.04h0Z"/></g></svg>