<?xml version="1.0" encoding="UTF-8"?>
<svg id="Layer_2" data-name="Layer 2" xmlns="http://www.w3.org/2000/svg" xmlns:xlink="http://www.w3.org/1999/xlink" viewBox="0 0 121.75 180.3">
  <defs>
    <style>
      .cls-1 {
        fill: #222;
      }

      .cls-2 {
        fill: url(#linear-gradient);
      }
    </style>
    <linearGradient id="linear-gradient" x1="0" y1="90.15" x2="120.19" y2="90.15" gradientUnits="userSpaceOnUse">
      <stop offset=".41" stop-color="#ff8ae8"/>
      <stop offset=".58" stop-color="#6edbff"/>
    </linearGradient>
  </defs>
  <g id="Layer_1-2" data-name="Layer 1">
    <g>
      <path class="cls-2" d="M80.5,180.3c-11.21,0-20-8.68-20-19.75v-16.25H19.75c-11.08,0-19.75-8.68-19.75-19.75v-1.5c0-7.36,1.83-16.58,4.56-22.94L41.8,12.64C45.09,4.95,52.57,0,60.85,0c2.23,0,4.44.36,6.56,1.07.12.04.23.08.35.12l1.8.67c5.08,1.69,9.09,5.15,11.31,9.75,2.3,4.76,2.47,10.27.47,15.5-.04.1-.08.19-.12.29l-31.97,76.65h11.24v-21.25c0-11.21,8.79-20,20-20h2c11.08,0,19.75,8.79,19.75,20v21.25c11.14.12,19.5,8.57,19.5,19.75v.75c0,10.99-8.54,19.62-19.5,19.75v16.25c0,11.07-8.67,19.75-19.75,19.75h-2Z"/>
      <path class="cls-1" d="M80.5,170.3c-5.75,0-10-4.25-10-9.75v-26.25H19.75c-5.75,0-9.75-4.25-9.75-9.75v-1.5c0-5.75,1.5-13.75,3.75-19L51,16.55c2.25-5.25,8-7.75,13.25-6l2,.75c5.5,1.75,7.75,7,5.75,12.25l-37.75,90.5h36.25v-31.25c0-5.52,4.48-10,10-10h2c5.5,0,9.75,4.25,9.75,10v31.25h9.75c5.38,0,9.75,4.37,9.75,9.75v.75c0,5.5-4,9.75-9.75,9.75h-9.75v26.25c0,5.38-4.37,9.75-9.75,9.75h-2Z"/>
    </g>
  </g>
</svg>