<?xml version="1.0" encoding="UTF-8"?>
<svg id="Layer_2" data-name="Layer 2" xmlns="http://www.w3.org/2000/svg" xmlns:xlink="http://www.w3.org/1999/xlink" viewBox="0 0 170 220">
  <defs>
    <style>
      .cls-1 {
        fill: #222;
      }

      .cls-2 {
        fill: url(#linear-gradient);
      }
    </style>
    <linearGradient id="linear-gradient" x1="0" y1="110" x2="170" y2="110" gradientUnits="userSpaceOnUse">
      <stop offset=".35" stop-color="#ff8ae8"/>
      <stop offset=".61" stop-color="#6edbff"/>
    </linearGradient>
  </defs>
  <g id="Layer_1-2" data-name="Layer 1">
    <g>
      <path class="cls-1" d="M165,27.9v60c0,5.52-4.48,10-10,10h-55v107.1c0,5.52-4.48,10-10,10h-10c-5.52,0-10-4.48-10-10v-107.1H15c-5.52,0-10-4.48-10-10V27.9c0-5.52,4.48-10,10-10h55v-2.9c0-5.52,4.48-10,10-10h10c5.52,0,10,4.48,10,10v2.9h55c5.52,0,10,4.48,10,10Z"/>
      <path class="cls-2" d="M90,220h-10c-8.27,0-15-6.73-15-15v-102.1H15c-8.27,0-15-6.73-15-15V27.9c0-8.27,6.73-15,15-15h50.15c1.02-7.28,7.29-12.9,14.85-12.9h10c7.56,0,13.83,5.62,14.85,12.9h50.15c8.27,0,15,6.73,15,15v60c0,8.27-6.73,15-15,15h-50v102.1c0,8.27-6.73,15-15,15ZM15,22.9c-2.76,0-5,2.24-5,5v60c0,2.76,2.24,5,5,5h55c2.76,0,5,2.24,5,5v107.1c0,2.76,2.24,5,5,5h10c2.76,0,5-2.24,5-5v-107.1c0-2.76,2.24-5,5-5h55c2.76,0,5-2.24,5-5V27.9c0-2.76-2.24-5-5-5h-55c-2.76,0-5-2.24-5-5v-2.9c0-2.76-2.24-5-5-5h-10c-2.76,0-5,2.24-5,5v2.9c0,2.76-2.24,5-5,5H15Z"/>
    </g>
  </g>
</svg>