<?xml version="1.0" encoding="UTF-8"?><svg id="uuid-aff70e05-0dc9-4d40-801b-5846a9cd6079" xmlns="http://www.w3.org/2000/svg" width="96.94" height="201.9" xmlns:xlink="http://www.w3.org/1999/xlink" viewBox="0 0 96.94 201.9"><defs><style>.uuid-bc2a87e7-63c1-46ae-b29c-1c092de8ce56{fill:url(#uuid-9227466b-303d-40d8-8de6-2be530ff47b1);}.uuid-10b9c529-004d-47aa-91ca-da52c223e606{fill:#222;}</style><linearGradient id="uuid-9227466b-303d-40d8-8de6-2be530ff47b1" x1="34.98" y1="86.83" x2="65.58" y2="117.43" gradientTransform="translate(-58.96 64.28) rotate(-45)" gradientUnits="userSpaceOnUse"><stop offset="0" stop-color="#ff8ae8"/><stop offset="1" stop-color="#6edbff"/></linearGradient></defs><g id="uuid-e8af500b-551a-440f-ac0c-14bccb7ecf8c"><path class="uuid-10b9c529-004d-47aa-91ca-da52c223e606" d="M43.31,196.9h9.71c2.76,0,4.99-2.23,5-4.99l.05-27.83c0-2.74,2.22-4.97,4.97-4.99l23.94-.17c2.79-.02,5.02-2.31,4.96-5.1l-.16-8.14c-.05-2.57-2.04-4.69-4.61-4.89l-9.93-.78c-2.85-.22-4.93-2.78-4.57-5.62l11.65-91.27c.19-1.5-.31-3-1.35-4.09L51.83,6.54c-1.93-2.02-5.14-2.06-7.13-.09l-31.1,30.81c-1.12,1.11-1.65,2.68-1.43,4.23l12.94,93.85c.42,3.02-1.95,5.71-5,5.68l-10.05-.09c-2.78-.03-5.04,2.22-5.05,4.99v8.27c-.02,2.75,2.21,4.99,4.96,5.01l22.38.11c2.68.01,4.88,2.14,4.97,4.82l.98,27.94c.09,2.69,2.3,4.82,5,4.82Z"/><path class="uuid-bc2a87e7-63c1-46ae-b29c-1c092de8ce56" d="M60.09,198.96c-1.81,1.81-4.31,2.93-7.07,2.93h-9.71c-5.41,0-9.81-4.24-10-9.65l-.98-27.94-22.38-.11C4.46,164.18,0,159.68,0,154.19v-8.27c.02-2.68,1.09-5.18,2.98-7.09,1.91-1.89,4.44-2.92,7.12-2.89l10.05.09L7.21,42.18c-.43-3.09.63-6.24,2.84-8.44l.03-.03L41.18,2.9C43.1.99,45.64-.03,48.34,0c2.7.03,5.22,1.13,7.09,3.08l31.16,32.5c2.1,2.19,3.08,5.18,2.7,8.19l-11.65,91.27,9.93.78c5.16.4,9.12,4.61,9.22,9.78l.16,8.14c.05,2.69-.96,5.24-2.84,7.17-1.91,1.9-4.4,3-7.09,3.02l-23.94.17-.05,27.83c0,2.75-1.13,5.24-2.93,7.05ZM43.31,191.9h9.71s.05-27.83.05-27.83c0-5.47,4.46-9.95,9.93-9.98l23.94-.17-.16-8.14-9.93-.78c-2.71-.21-5.26-1.55-6.98-3.66-1.72-2.11-2.51-4.87-2.16-7.58l11.65-91.27L48.22,10l-31.1,30.81,12.94,93.85c.4,2.88-.48,5.79-2.4,7.97-1.92,2.18-4.69,3.42-7.6,3.4l-10.06-.09v8.27s22.37.11,22.37.11c5.39.03,9.76,4.26,9.95,9.65l.98,27.94Z"/></g></svg>