<?xml version="1.0" encoding="UTF-8"?>
<svg id="Layer_2" data-name="Layer 2" xmlns="http://www.w3.org/2000/svg" xmlns:xlink="http://www.w3.org/1999/xlink" viewBox="0 0 202 368.5">
  <defs>
    <style>
      .cls-1 {
        fill: url(#linear-gradient);
      }
      .fill {
        fill: #222;
      }
    </style>
    <linearGradient id="linear-gradient" x1="79.69" y1="184.25" x2="114.82" y2="184.25" gradientUnits="userSpaceOnUse">
      <stop offset="0" stop-color="#ff8ae8"/>
      <stop offset=".29" stop-color="#d2a3ef"/>
      <stop offset=".77" stop-color="#8acbfa"/>
      <stop offset="1" stop-color="#6edbff"/>
    </linearGradient>
  </defs>
  <g id="Layer_1-2" data-name="Layer 1">
    <g>
      <path class="fill" d="M193,106c0,39.5-7,59-49.5,94-19.5,16-19.5,19-19.5,40.5v25.5h-54v-41.5c0-33,9.5-41,39.5-65.5,22.5-18.5,31.5-28.5,31.5-53,0-14-3-46-40-46s-41.5,34-41.5,50.5v20H9v-20C9,61.5,27,9,101,9c64,0,92,41.5,92,97ZM66,297.5h62v62h-62v-62Z"/>
      <path class="cls-1" d="M128,368.5h-62c-4.97,0-9-4.03-9-9v-62c0-4.97,4.03-9,9-9h62c4.97,0,9,4.03,9,9v62c0,4.97-4.03,9-9,9ZM75,350.5h44v-44h-44v44ZM124,275h-54c-4.97,0-9-4.03-9-9v-41.5c0-37.51,12.53-47.75,42.81-72.47,22.18-18.24,28.19-26.02,28.19-46.03,0-37-23.33-37-31-37-13.95,0-32.5,4.3-32.5,41.5v20c0,4.97-4.03,9-9,9H9c-4.97,0-9-4.03-9-9v-20C0,39.24,35.87,0,101,0c33.26,0,59.1,10.36,76.8,30.79,15.83,18.27,24.2,44.28,24.2,75.21,0,42.42-7.97,64.05-52.78,100.95q-16.22,13.31-16.22,33.55v25.5c0,4.97-4.03,9-9,9ZM79,257h36v-16.5c0-23.73.77-29.39,22.79-47.46,39.83-32.8,46.21-49.69,46.21-87.04,0-76.57-52-88-83-88-55.07,0-83,31.12-83,92.5v11h32.5v-11c0-51.77,31.64-59.5,50.5-59.5,31.14,0,49,20.05,49,55,0,28.26-11.14,40.51-34.78,59.95-29.27,23.9-36.22,29.58-36.22,58.55v32.5Z"/>
    </g>
  </g>
</svg>