<?xml version="1.0" encoding="UTF-8"?>
<svg id="uuid-25a023f1-3210-4bfa-b83f-eb06fc91933a" xmlns="http://www.w3.org/2000/svg" width="87.96" height="197.6" xmlns:xlink="http://www.w3.org/1999/xlink" viewBox="0 0 87.96 197.6">
    <defs>
        <style>
            .uuid-babbfbc1-dcef-4700-b242-5e63469a4b3a{fill:#222;}
            .uuid-14fae5fc-c33d-492e-92be-e1b05e71e7e3{fill:url(#uuid-7f0f0a28-7ef1-433c-816e-1bece160d29b);}
        </style>
        <linearGradient id="uuid-7f0f0a28-7ef1-433c-816e-1bece160d29b" x1="30.87" y1="87.92" x2="49.74" y2="106.79" gradientTransform="translate(-53.41 58.46) rotate(-45)" gradientUnits="userSpaceOnUse">
            <stop offset="0" stop-color="#ff8ae8"/>
            <stop offset="1" stop-color="#6edbff"/>
        </linearGradient>
    </defs>
    <g id="uuid-f57a7a2b-c0d0-48fb-9905-3d931ccb0786">
        <path class="uuid-babbfbc1-dcef-4700-b242-5e63469a4b3a" d="M57.27,5v36c0,2.76-2.24,5-5,5h-18c-2.76,0-5-2.24-5-5V5.54c-4.68,1.9-9.07,4.75-12.87,8.55-15.23,15.23-15.23,39.92,0,55.15,2.36,2.36,4.96,4.36,7.7,5.99l-.5,97.06c-.06,11.24,9.06,20.36,20.3,20.3h0c10.97-.05,19.84-8.93,19.9-19.9l.51-97.76c2.58-1.58,5.02-3.47,7.25-5.7,15.23-15.23,15.23-39.92,0-55.15-4.18-4.18-9.07-7.2-14.28-9.09Z"/>
        <path class="uuid-14fae5fc-c33d-492e-92be-e1b05e71e7e3" d="M61.46,190.25c-4.51,4.51-10.71,7.31-17.53,7.34-6.78.03-13.15-2.59-17.94-7.38-4.79-4.79-7.41-11.17-7.38-17.95l.49-94.31c-2.22-1.53-4.31-3.26-6.23-5.18C-4.29,55.62-4.29,27.71,12.87,10.55,17.06,6.36,21.94,3.12,27.39.9c1.54-.63,3.29-.45,4.67.48,1.38.93,2.21,2.48,2.21,4.15v35.47h18s0-36,0-36c0-1.63.79-3.15,2.13-4.09,1.33-.94,3.04-1.16,4.57-.61,6.1,2.21,11.52,5.66,16.12,10.26,17.16,17.16,17.16,45.07,0,62.23-1.78,1.78-3.72,3.41-5.8,4.87l-.49,95.08c-.04,6.82-2.84,13.02-7.35,17.53ZM19.94,17.62c-13.26,13.26-13.26,34.83,0,48.08,2.02,2.02,4.28,3.78,6.72,5.22,1.53.91,2.46,2.55,2.45,4.33l-.5,97.06c-.02,4.09,1.56,7.93,4.45,10.82,2.89,2.89,6.73,4.47,10.82,4.45,8.19-.04,14.88-6.73,14.93-14.92l.51-97.76c0-1.73.91-3.33,2.39-4.24,2.3-1.41,4.43-3.08,6.32-4.97,13.26-13.26,13.26-34.83,0-48.08-1.76-1.76-3.69-3.31-5.75-4.63v28.01c0,5.51-4.49,10-10,10h-18c-5.51,0-10-4.49-10-10V13.95c-1.53,1.09-2.98,2.32-4.33,3.67Z"/>
    </g>
</svg>