<?xml version="1.0" encoding="UTF-8"?>
<svg id="uuid-1825d431-053b-4058-8807-c125d0a69ae2" xmlns="http://www.w3.org/2000/svg" width="185.92" height="172.75" xmlns:xlink="http://www.w3.org/1999/xlink" viewBox="0 0 185.92 172.75">
    <defs>
        <style>
            .uuid-5474d86c-b001-4f0e-ab58-9432caea6d90{fill:url(#uuid-b342c908-5856-48eb-9de2-ee86a8882d7d);}
            .uuid-84be7e49-1a2c-4e61-9f95-233073d7d511{fill:#222;fill-rule:evenodd;}
        </style>
        <linearGradient id="uuid-b342c908-5856-48eb-9de2-ee86a8882d7d" x1="75.34" y1="86.38" x2="110.23" y2="86.38" gradientUnits="userSpaceOnUse">
            <stop offset="0" stop-color="#ff8ae8"/>
            <stop offset="1" stop-color="#6edbff"/>
        </linearGradient>
    </defs>
    <g id="uuid-cd87576b-bef1-4e11-8f4a-638136b8ebea">
        <path class="uuid-5474d86c-b001-4f0e-ab58-9432caea6d90" d="M175.92,6.51h-44.35C118.7,2.82,105.83.48,92.96,0c-12.87.48-25.74,2.82-38.61,6.51H10C3.66,6.51-1.09,12.35.22,18.56l10.55,50.38,4.36,10.89,2.79,34.8,1.3,12.35s0,.02,0,.03c1.32,5.78,4.32,11.08,8.68,15.19l22.35,21.05c2.2,2.08,4.66,3.84,7.3,5.27,4.33,1.96,8.95,3.27,13.71,3.87,1.95.24,3.92.37,5.88.37h31.64c1.97,0,3.93-.12,5.88-.37,4.77-.6,9.39-1.91,13.71-3.87,2.64-1.43,5.1-3.19,7.3-5.27l22.35-21.05c4.36-4.11,7.37-9.41,8.68-15.19,0-.01,0-.02,0-.03l1.3-12.35,2.79-34.8,4.36-10.89,10.55-50.38c1.3-6.21-3.44-12.05-9.79-12.05Z"/>
        <path class="uuid-84be7e49-1a2c-4e61-9f95-233073d7d511" d="M139.78,20.44c-31.14-13.53-63.04-13.28-95.71.77-.35,1.2-.5,2.35-.42,3.43-.25,6.05,29.07,21.95,49.4,34.85,25.98-15.07,46.45-28.02,47.22-33.39.78-1.49.5-3.41-.48-5.65ZM92.31,42.78l-21.79-15.25c13.07-3.63,28.09-4.12,45.04,0l-23.24,15.25Z"/>
        <path class="uuid-84be7e49-1a2c-4e61-9f95-233073d7d511" d="M26.8,78.85l13.97,9.01v8.57l12.61,7.64v44.58l-22.08-19.81-4.51-49.98h0ZM84.47,145.49h18.93l8.56,18.46h-34.7l7.21-18.46ZM80.41,61.29l12.16,7.65,13.07-7.65-2.98,28.82v34.22h-18.54v-34.22l-3.72-28.82h0ZM60.59,103.61l15.77-7.66v36.02h34.69v-36.48l14.42,7.21v52.24l-5.41,7.2-10.81-22.51h-31.09l-9.91,22.51-6.76-4.05-.9-54.49h0ZM159.13,78.85l-13.97,9.01v8.57l-12.62,7.64v44.58l22.08-19.81,4.51-49.98h0ZM176.25,20.76h-25.25v11.33l-36.03,21.99-5.86,30.17h29.74l27.03-16.66,10.37-46.83h0ZM156.87,39.22l-1.39,8.67-34.04,13.84,1.19-7.66,34.24-14.86h0ZM154.09,56.52l-1.28,7.92-33.85,14.59,1.24-9.27,33.9-13.24ZM9.68,20.76h25.25v11.33l36.03,21.99,5.86,30.17h-29.74l-27.03-16.66L9.68,20.76h0ZM29.05,39.22l1.39,8.67,34.04,13.84-1.19-7.66-34.24-14.86h0ZM31.83,56.52l1.27,7.92,33.86,14.59-1.24-9.27-33.89-13.24Z"/>
    </g>
</svg>